<svg width="32" height="32" viewBox="0 0 32 32" fill="none" xmlns="http://www.w3.org/2000/svg">
<g clip-path="url(#clip0_1428_79321)" filter="url(#filter0_d_1428_79321)">
<path fill-rule="evenodd" clip-rule="evenodd" d="M4.65396 3.27606C4 4.55953 4 6.23969 4 9.6V14.4C4 17.7603 4 19.4405 4.65396 20.7239C5.2292 21.8529 6.14708 22.7708 7.27606 23.346C8.55953 24 10.2397 24 13.6 24H18.4C21.7603 24 23.4405 24 24.7239 23.346C25.8529 22.7708 26.7708 21.8529 27.346 20.7239C28 19.4405 28 17.7603 28 14.4V9.6C28 6.23969 28 4.55953 27.346 3.27606C26.7708 2.14708 25.8529 1.2292 24.7239 0.653961C23.4405 0 21.7603 0 18.4 0H13.6C10.2397 0 8.55953 0 7.27606 0.653961C6.14708 1.2292 5.2292 2.14708 4.65396 3.27606ZM17.8664 4.00373C17.3459 4.00453 16.8244 4.00533 16.3005 4.01333C16.288 5.68825 16.2885 7.36317 16.2891 9.03972C16.2894 10.0457 16.2897 11.0524 16.2872 12.0599C16.2854 12.374 16.286 12.6876 16.2865 13.001C16.2881 13.8783 16.2896 14.7539 16.2405 15.6332C16.2342 15.878 16.1098 16.0932 15.9895 16.3012C15.982 16.3141 15.9746 16.327 15.9672 16.3398C15.5805 16.9732 14.8672 17.4065 14.1205 17.4132C13.0006 17.5132 11.9472 16.5932 11.7872 15.4999C11.7862 15.4439 11.7844 15.3877 11.7825 15.3313C11.7725 15.0247 11.7623 14.7137 11.8806 14.4265C12.0472 13.9532 12.3672 13.5332 12.7872 13.2599C13.3672 12.8599 14.1405 12.7999 14.8005 13.0132C14.8005 12.5904 14.8079 12.1675 14.8152 11.7447C14.825 11.1809 14.8348 10.6171 14.8272 10.0533C13.3805 9.77993 11.8339 10.2399 10.7272 11.1999C9.75392 12.0266 9.12727 13.2399 9.00727 14.5065C8.99393 14.8332 9.0006 15.1665 9.01393 15.4999C9.15393 17.0598 10.1006 18.5131 11.4472 19.3065C12.2606 19.7865 13.2139 20.0465 14.1672 19.9931C15.7205 19.9665 17.2338 19.1331 18.1072 17.8532C18.6471 17.0865 18.9538 16.1598 19.0071 15.2265C19.0196 14.0141 19.0191 12.799 19.0186 11.583C19.0183 10.8533 19.018 10.1233 19.0205 9.39327C19.3671 9.61993 19.7205 9.83993 20.1005 10.0133C20.9738 10.4266 21.9404 10.6266 22.9004 10.6599V7.97328C21.8738 7.85995 20.8205 7.51996 20.0738 6.77997C19.3271 6.05997 18.9605 5.01999 18.9071 4C18.5604 4.00267 18.2136 4.0032 17.8664 4.00373Z" fill="black"/>
</g>
<defs>
<filter id="filter0_d_1428_79321" x="0" y="0" width="32" height="32" filterUnits="userSpaceOnUse" color-interpolation-filters="sRGB">
<feFlood flood-opacity="0" result="BackgroundImageFix"/>
<feColorMatrix in="SourceAlpha" type="matrix" values="0 0 0 0 0 0 0 0 0 0 0 0 0 0 0 0 0 0 127 0" result="hardAlpha"/>
<feOffset dy="4"/>
<feGaussianBlur stdDeviation="2"/>
<feComposite in2="hardAlpha" operator="out"/>
<feColorMatrix type="matrix" values="0 0 0 0 0 0 0 0 0 0 0 0 0 0 0 0 0 0 0.25 0"/>
<feBlend mode="normal" in2="BackgroundImageFix" result="effect1_dropShadow_1428_79321"/>
<feBlend mode="normal" in="SourceGraphic" in2="effect1_dropShadow_1428_79321" result="shape"/>
</filter>
<clipPath id="clip0_1428_79321">
<rect width="24" height="24" fill="white" transform="translate(4)"/>
</clipPath>
</defs>
</svg>
